<?xml version="1.0" encoding="UTF-8" standalone="no"?>
<!-- Created with Inkscape (http://www.inkscape.org/) -->

<svg
   xmlns:dc="http://purl.org/dc/elements/1.1/"
   xmlns:cc="http://creativecommons.org/ns#"
   xmlns:rdf="http://www.w3.org/1999/02/22-rdf-syntax-ns#"
   xmlns:svg="http://www.w3.org/2000/svg"
   xmlns="http://www.w3.org/2000/svg"
   xmlns:sodipodi="http://sodipodi.sourceforge.net/DTD/sodipodi-0.dtd"
   xmlns:inkscape="http://www.inkscape.org/namespaces/inkscape"
   width="744.09448819"
   height="1052.3622047"
   id="svg2"
   version="1.1"
   inkscape:version="0.48.4 r9939"
   sodipodi:docname="logo_design.png">
  <defs
     id="defs4" />
  <sodipodi:namedview
     id="base"
     pagecolor="#ffffff"
     bordercolor="#666666"
     borderopacity="1.0"
     inkscape:pageopacity="0.0"
     inkscape:pageshadow="2"
     inkscape:zoom="1"
     inkscape:cx="311.59449"
     inkscape:cy="770.43187"
     inkscape:document-units="px"
     inkscape:current-layer="layer1"
     showgrid="true"
     showguides="false"
     inkscape:snap-grids="true"
     inkscape:window-width="1920"
     inkscape:window-height="1177"
     inkscape:window-x="1912"
     inkscape:window-y="-8"
     inkscape:window-maximized="1">
    <inkscape:grid
       type="xygrid"
       id="grid2985" />
  </sodipodi:namedview>
  <metadata
     id="metadata7">
    <rdf:RDF>
      <cc:Work
         rdf:about="">
        <dc:format>image/svg+xml</dc:format>
        <dc:type
           rdf:resource="http://purl.org/dc/dcmitype/StillImage" />
        <dc:title></dc:title>
      </cc:Work>
    </rdf:RDF>
  </metadata>
  <g
     inkscape:label="Layer 1"
     inkscape:groupmode="layer"
     id="layer1">
    <g
       id="g3819"
       style="stroke:none"
       transform="matrix(4,0,0,4,-526,-1254.125)">
      <path
         id="rect2994"
         d="m 160,327.375 c -5.54,0 -10,4.46 -10,10 l 0,30 c 0,5.54 4.46,10 10,10 l 30,0 c 5.54,0 10,-4.46 10,-10 l 0,-30 c 0,-5.54 -4.46,-10 -10,-10 l -30,0 z m 4.5,10 c 0.16849,-0.017 0.32688,0 0.5,0 l 20,0 c 2.77,0 5,2.23 5,5 l 0,20 c 0,2.77 -2.23,5 -5,5 l -20,0 c -2.77,0 -5,-2.23 -5,-5 l 0,-20 c 0,-2.59687 1.9726,-4.74486 4.5,-5 z"
         style="fill:#000000;stroke:none"
         inkscape:connector-curvature="0" />
      <path
         id="rect2998"
         d="m 260,327.375 c -5.54,0 -10,4.46 -10,10 l 0,70 c 0,5.54 4.46,10 10,10 l 30,0 c 5.54,0 10,-4.46 10,-10 l 0,-70 c 0,-5.54 -4.46,-10 -10,-10 l -30,0 z m 5,9.5 c 0.16849,-0.017 0.32687,0 0.5,0 l 20,0 c 2.77,0 5,2.23 5,5 l 0,20 c 0,2.77 -2.23,5 -5,5 l -20,0 c -2.77,0 -5,-2.23 -5,-5 l 0,-20 c 0,-2.59687 1.9726,-4.74486 4.5,-5 z m 0,40 c 0.16849,-0.017 0.32687,0 0.5,0 l 20,0 c 2.77,0 5,2.23 5,5 l 0,20 c 0,2.77 -2.23,5 -5,5 l -20,0 c -2.77,0 -5,-2.23 -5,-5 l 0,-20 c 0,-2.59687 1.9726,-4.74486 4.5,-5 z"
         style="fill:#000000;stroke:none"
         inkscape:connector-curvature="0" />
      <path
         id="rect3025"
         d="m 234.375,336.75 c -1.2781,0 -2.55191,0.48941 -3.53125,1.46875 -1.95869,1.95869 -1.95869,5.10381 0,7.0625 l 2.09375,2.09375 -27.9375,0 c -2.77,0 -5,2.23 -5,5 0,2.77 2.23,5 5,5 l 27.9375,0 -2.0625,2.0625 c -1.95869,1.95869 -1.95869,5.10381 0,7.0625 1.95869,1.95869 5.10381,1.95869 7.0625,0 l 10.59375,-10.59375 0.0312,0 c 0.23406,-0.23406 0.41563,-0.48589 0.59375,-0.75 0.008,-0.0118 0.0234,-0.0194 0.0312,-0.0312 0.35434,-0.5355 0.59233,-1.14375 0.71875,-1.75 0.0351,-0.1683 0.045,-0.32955 0.0625,-0.5 0.0355,-0.34496 0.0365,-0.68637 0,-1.03125 -0.0176,-0.16643 -0.0282,-0.33564 -0.0625,-0.5 -0.0637,-0.30471 -0.15998,-0.58397 -0.28125,-0.875 -0.009,-0.0212 -0.0223,-0.0414 -0.0312,-0.0625 -0.1169,-0.27729 -0.24349,-0.5324 -0.40625,-0.78125 -0.008,-0.0122 -0.0231,-0.0191 -0.0312,-0.0312 -0.005,-0.007 0.005,-0.024 0,-0.0312 -0.0287,-0.0425 -0.0638,-0.0835 -0.0937,-0.125 -0.053,-0.074 -0.0987,-0.14705 -0.15625,-0.21875 -0.009,-0.0114 -0.0218,-0.0199 -0.0312,-0.0312 -0.0978,-0.11979 -0.20192,-0.23122 -0.3125,-0.34375 -0.005,-0.005 -0.0266,0.005 -0.0312,0 -0.005,-0.005 0.005,-0.0262 0,-0.0312 L 248.1875,348.5 237.90625,338.21875 C 236.92691,337.23941 235.6531,336.75 234.375,336.75 z"
         style="fill:#000000;stroke:none"
         inkscape:connector-curvature="0" />
    </g>
    <path
       style="fill:#00ff00;stroke:#000000;stroke-width:4;stroke-opacity:1"
       d="m 129.84732,214.45516 c -5.53692,-1.11392 -11.06776,-5.64776 -13.74672,-11.26864 -1.501,-3.14924 -1.5166,-3.64024 -1.5166,-47.72972 l 0,-44.54772 1.98068,-4.0334 c 2.11068,-4.29816 4.55928,-6.74888 9.25068,-9.25864 2.89808,-1.5504 3.10284,-1.55804 46.84708,-1.7544 42.52628,-0.1908 44.05804,-0.1516 47.72972,1.22308 5.233,1.95928 8.65168,4.99732 10.99632,9.77192 l 1.98948,4.05144 0,44.54772 c 0,43.91564 -0.02,44.5938 -1.501,47.79292 -1.91544,4.14124 -5.96184,8.18764 -10.10308,10.10308 -3.18528,1.47328 -4.03456,1.50312 -46.02512,1.61568 -23.529,0.0632 -44.18464,-0.168 -45.90144,-0.51332 l 0,0 z"
       id="path3826"
       inkscape:connector-curvature="0" />
    <path
       style="fill:#ff0000;stroke:#000000;stroke-width:4;stroke-opacity:1"
       d="m 530.80092,212.28152 c -4.76932,-1.39256 -9.87972,-5.59692 -12.34412,-10.15564 -1.5226,-2.81656 -1.52904,-3.02144 -1.52904,-48.7904 l 0,-45.96192 1.93956,-3.2994 c 2.61324,-4.44536 6.86588,-7.94136 11.39184,-9.36496 3.34928,-1.05348 8.24764,-1.15532 46.8234,-0.9736 l 43.0828,0.2028 3.53552,1.6272 c 4.23632,1.94976 7.70568,5.13356 9.78468,8.9794 1.51548,2.80332 1.5308,3.22892 1.72592,47.90548 0.194,44.38076 0.174,45.13008 -1.28112,48.51272 -1.73328,4.02912 -5.4182,7.80424 -9.87592,10.11776 l -3.18196,1.6514 -43.84064,0.1236 c -27.1416,0.0764 -44.75108,-0.1424 -46.23092,-0.57444 l 0,0 z"
       id="path3828"
       inkscape:connector-curvature="0" />
    <path
       style="fill:#ff0000;stroke:#000000;stroke-width:4;stroke-opacity:1"
       d="m 530.71176,372.2418 c -5.30172,-1.64364 -10.30284,-6.13212 -12.66912,-11.37048 -1.39476,-3.0876 -1.43784,-4.47948 -1.45288,-46.94056 -0.012,-30.51764 0.226,-44.56528 0.78324,-46.42464 1.34404,-4.48608 5.50412,-9.26096 10.13036,-11.6276 l 4.17128,-2.13388 41.0634,-0.2112 c 27.851,-0.1432 42.5422,0.0416 45.65956,0.57524 5.53324,0.94696 9.71028,3.2506 12.66992,6.98744 4.39104,5.54416 4.30132,4.44352 4.29372,52.66484 l -0.008,43.92848 -1.65328,3.55036 c -1.9488,4.18492 -5.14424,7.567 -9.19796,9.7352 -2.9202,1.56192 -2.97396,1.5638 -47.47124,1.69004 -24.50124,0.0696 -45.34528,-0.1208 -46.32008,-0.42316 l 1.6e-4,0 z"
       id="path3830"
       inkscape:connector-curvature="0" />
  </g>
</svg>
