<?xml version="1.0" encoding="UTF-8" standalone="no"?>
<!-- Created with Inkscape (http://www.inkscape.org/) -->

<svg
   xmlns:dc="http://purl.org/dc/elements/1.1/"
   xmlns:cc="http://creativecommons.org/ns#"
   xmlns:rdf="http://www.w3.org/1999/02/22-rdf-syntax-ns#"
   xmlns:svg="http://www.w3.org/2000/svg"
   xmlns="http://www.w3.org/2000/svg"
   xmlns:sodipodi="http://sodipodi.sourceforge.net/DTD/sodipodi-0.dtd"
   xmlns:inkscape="http://www.inkscape.org/namespaces/inkscape"
   width="744.09448819"
   height="1052.3622047"
   id="svg2"
   version="1.1"
   inkscape:version="0.48.4 r9939"
   sodipodi:docname="New document 1">
  <defs
     id="defs4" />
  <sodipodi:namedview
     id="base"
     pagecolor="#ffffff"
     bordercolor="#666666"
     borderopacity="1.0"
     inkscape:pageopacity="0.0"
     inkscape:pageshadow="2"
     inkscape:zoom="5.6568542"
     inkscape:cx="206.60093"
     inkscape:cy="683.08455"
     inkscape:document-units="px"
     inkscape:current-layer="layer1"
     showgrid="true"
     showguides="false"
     inkscape:snap-grids="true"
     inkscape:window-width="1920"
     inkscape:window-height="1177"
     inkscape:window-x="1912"
     inkscape:window-y="-8"
     inkscape:window-maximized="1">
    <inkscape:grid
       type="xygrid"
       id="grid2985" />
  </sodipodi:namedview>
  <metadata
     id="metadata7">
    <rdf:RDF>
      <cc:Work
         rdf:about="">
        <dc:format>image/svg+xml</dc:format>
        <dc:type
           rdf:resource="http://purl.org/dc/dcmitype/StillImage" />
        <dc:title></dc:title>
      </cc:Work>
    </rdf:RDF>
  </metadata>
  <g
     inkscape:label="Layer 1"
     inkscape:groupmode="layer"
     id="layer1">
    <path
       style="fill:#000000;stroke:#000000;stroke-opacity:1"
       d="M 160 327.375 C 154.46 327.375 150 331.835 150 337.375 L 150 367.375 C 150 372.915 154.46 377.375 160 377.375 L 190 377.375 C 195.54 377.375 200 372.915 200 367.375 L 200 337.375 C 200 331.835 195.54 327.375 190 327.375 L 160 327.375 z M 164.5 337.375 C 164.66849 337.35799 164.82688 337.375 165 337.375 L 185 337.375 C 187.77 337.375 190 339.605 190 342.375 L 190 362.375 C 190 365.145 187.77 367.375 185 367.375 L 165 367.375 C 162.23 367.375 160 365.145 160 362.375 L 160 342.375 C 160 339.77813 161.9726 337.63014 164.5 337.375 z "
       id="rect2994" />
    <path
       style="fill:#000000;stroke:#000000;stroke-opacity:1"
       d="M 260 327.375 C 254.46 327.375 250 331.835 250 337.375 L 250 407.375 C 250 412.915 254.46 417.375 260 417.375 L 290 417.375 C 295.54 417.375 300 412.915 300 407.375 L 300 337.375 C 300 331.835 295.54 327.375 290 327.375 L 260 327.375 z M 265 336.875 C 265.16849 336.85799 265.32687 336.875 265.5 336.875 L 285.5 336.875 C 288.27 336.875 290.5 339.105 290.5 341.875 L 290.5 361.875 C 290.5 364.645 288.27 366.875 285.5 366.875 L 265.5 366.875 C 262.73 366.875 260.5 364.645 260.5 361.875 L 260.5 341.875 C 260.5 339.27813 262.4726 337.13014 265 336.875 z M 265 376.875 C 265.16849 376.85799 265.32687 376.875 265.5 376.875 L 285.5 376.875 C 288.27 376.875 290.5 379.105 290.5 381.875 L 290.5 401.875 C 290.5 404.645 288.27 406.875 285.5 406.875 L 265.5 406.875 C 262.73 406.875 260.5 404.645 260.5 401.875 L 260.5 381.875 C 260.5 379.27813 262.4726 377.13014 265 376.875 z "
       id="rect2998" />
    <path
       style="fill:#000000;stroke:#000000;stroke-opacity:1"
       d="M 234.375 336.75 C 233.0969 336.75 231.82309 337.23941 230.84375 338.21875 C 228.88506 340.17744 228.88506 343.32256 230.84375 345.28125 L 232.9375 347.375 L 205 347.375 C 202.23 347.375 200 349.605 200 352.375 C 200 355.145 202.23 357.375 205 357.375 L 232.9375 357.375 L 230.875 359.4375 C 228.91631 361.39619 228.91631 364.54131 230.875 366.5 C 232.83369 368.45869 235.97881 368.45869 237.9375 366.5 L 248.53125 355.90625 L 248.5625 355.90625 C 248.79656 355.67219 248.97813 355.42036 249.15625 355.15625 C 249.1642 355.14446 249.17965 355.13686 249.1875 355.125 C 249.54184 354.5895 249.77983 353.98125 249.90625 353.375 C 249.94134 353.2067 249.95122 353.04545 249.96875 352.875 C 250.00423 352.53004 250.00521 352.18863 249.96875 351.84375 C 249.95115 351.67732 249.9406 351.50811 249.90625 351.34375 C 249.84257 351.03904 249.74627 350.75978 249.625 350.46875 C 249.61638 350.44758 249.60267 350.42733 249.59375 350.40625 C 249.47685 350.12896 249.35026 349.87385 249.1875 349.625 C 249.17942 349.61279 249.16445 349.60591 249.15625 349.59375 C 249.15142 349.58645 249.16112 349.56978 249.15625 349.5625 C 249.12758 349.52 249.09243 349.47905 249.0625 349.4375 C 249.00952 349.3635 248.96376 349.29045 248.90625 349.21875 C 248.89695 349.20737 248.88441 349.19882 248.875 349.1875 C 248.77718 349.06771 248.67308 348.95628 248.5625 348.84375 C 248.55791 348.83908 248.53586 348.8484 248.53125 348.84375 C 248.52615 348.8387 248.53636 348.81753 248.53125 348.8125 L 248.1875 348.5 L 237.90625 338.21875 C 236.92691 337.23941 235.6531 336.75 234.375 336.75 z "
       id="rect3025" />
  </g>
</svg>
